<svg xmlns="http://www.w3.org/2000/svg" viewBox="0 0 200 200" width="200" height="200">
  <defs>
    <linearGradient id="g" x1="0%" y1="0%" x2="100%" y2="0%">
      <stop offset="0%" stop-color="#8b5cf6"/>
      <stop offset="100%" stop-color="#ec4899"/>
    </linearGradient>
  </defs>
  <rect width="200" height="200" rx="32" fill="#06060f"/>
  <path d="M43.17 89.80L33.40 89.80L33.40 38L55.90 38Q60.78 38 64.41 39.70Q68.03 41.40 70.03 44.51Q72.03 47.62 72.03 51.84L72.03 52.73Q72.03 57.39 69.81 60.27Q67.59 63.16 64.33 64.49L64.33 65.82Q67.29 65.97 68.92 67.86Q70.55 69.75 70.55 72.85L70.55 89.80L60.78 89.80L60.78 74.26Q60.78 72.48 59.85 71.37Q58.93 70.26 56.78 70.26L43.17 70.26L43.17 89.80M43.17 46.88L43.17 61.38L54.86 61.38Q58.34 61.38 60.30 59.50Q62.26 57.61 62.26 54.50L62.26 53.76Q62.26 50.65 60.34 48.77Q58.41 46.88 54.86 46.88L43.17 46.88M89.94 89.80L80.17 89.80L80.17 38L89.94 38L89.94 59.39L109.18 59.39L109.18 38L118.94 38L118.94 89.80L109.18 89.80L109.18 68.27L89.94 68.27L89.94 89.80M138.48 89.80L128.71 89.80L128.71 38L150.02 38Q154.91 38 158.64 39.96Q162.38 41.92 164.49 45.47Q166.60 49.03 166.60 53.91L166.60 54.95Q166.60 59.76 164.42 63.34Q162.23 66.93 158.50 68.89Q154.76 70.86 150.02 70.86L138.48 70.86L138.48 89.80M138.48 46.88L138.48 61.98L149.06 61.98Q152.54 61.98 154.69 60.05Q156.83 58.13 156.83 54.80L156.83 54.06Q156.83 50.73 154.69 48.80Q152.54 46.88 149.06 46.88" fill="#ffffff"/>
  <path d="M62.74 116.18Q60.53 116.18 59.23 114.94Q57.94 113.71 57.94 111.42L57.94 108.56Q57.94 106.27 59.23 105.03Q60.53 103.80 62.74 103.80Q64.93 103.80 66.13 105Q67.33 106.20 67.33 108.29L67.33 108.39L65.12 108.39L65.12 108.22Q65.12 107.17 64.53 106.49Q63.94 105.81 62.74 105.81Q61.55 105.81 60.87 106.54Q60.19 107.27 60.19 108.53L60.19 111.45Q60.19 112.69 60.87 113.43Q61.55 114.17 62.74 114.17Q63.94 114.17 64.53 113.48Q65.12 112.79 65.12 111.76L65.12 111.45L67.33 111.45L67.33 111.69Q67.33 113.78 66.13 114.98Q64.93 116.18 62.74 116.18M71.41 115.94L69.16 115.94L69.16 104.04L74.33 104.04Q75.45 104.04 76.28 104.43Q77.12 104.82 77.58 105.53Q78.04 106.25 78.04 107.22L78.04 107.42Q78.04 108.49 77.53 109.16Q77.02 109.82 76.27 110.12L76.27 110.43Q76.95 110.46 77.32 110.90Q77.70 111.33 77.70 112.05L77.70 115.94L75.45 115.94L75.45 112.37Q75.45 111.96 75.24 111.70Q75.03 111.45 74.53 111.45L71.41 111.45L71.41 115.94M71.41 106.08L71.41 109.41L74.09 109.41Q74.89 109.41 75.34 108.98Q75.79 108.54 75.79 107.83L75.79 107.66Q75.79 106.95 75.35 106.51Q74.91 106.08 74.09 106.08L71.41 106.08M87.66 115.94L79.91 115.94L79.91 104.04L87.56 104.04L87.56 106.08L82.15 106.08L82.15 108.92L87.08 108.92L87.08 110.96L82.15 110.96L82.15 113.90L87.66 113.90L87.66 115.94M90.82 115.94L88.51 115.94L91.64 104.04L95.55 104.04L98.67 115.94L96.36 115.94L95.72 113.32L91.47 113.32L90.82 115.94M93.44 105.45L91.99 111.25L95.19 111.25L93.74 105.45L93.44 105.45M104.01 115.94L101.77 115.94L101.77 106.08L98.30 106.08L98.30 104.04L107.48 104.04L107.48 106.08L104.01 106.08L104.01 115.94M111.25 115.94L109.01 115.94L109.01 104.04L111.25 104.04L111.25 115.94M119.55 115.94L115.71 115.94L112.68 104.04L114.99 104.04L117.51 114.49L117.75 114.49L120.26 104.04L122.58 104.04L119.55 115.94M131.76 115.94L124 115.94L124 104.04L131.65 104.04L131.65 106.08L126.25 106.08L126.25 108.92L131.18 108.92L131.18 110.96L126.25 110.96L126.25 113.90L131.76 113.90L131.76 115.94M137.55 116.18Q136.18 116.18 135.12 115.68Q134.07 115.19 133.47 114.27Q132.88 113.35 132.88 112.06L132.88 111.59L135.09 111.59L135.09 112.06Q135.09 113.13 135.75 113.67Q136.41 114.20 137.55 114.20Q138.71 114.20 139.28 113.75Q139.85 113.29 139.85 112.57Q139.85 112.08 139.57 111.77Q139.29 111.47 138.75 111.27Q138.22 111.08 137.45 110.91L137.06 110.82Q135.84 110.55 134.96 110.13Q134.09 109.72 133.62 109.04Q133.15 108.36 133.15 107.27Q133.15 106.18 133.67 105.41Q134.19 104.63 135.13 104.22Q136.07 103.80 137.35 103.80Q138.62 103.80 139.62 104.23Q140.61 104.67 141.18 105.53Q141.75 106.38 141.75 107.68L141.75 108.19L139.54 108.19L139.54 107.68Q139.54 107 139.28 106.58Q139.02 106.16 138.52 105.97Q138.03 105.77 137.35 105.77Q136.33 105.77 135.84 106.15Q135.36 106.54 135.36 107.20Q135.36 107.64 135.59 107.95Q135.82 108.25 136.28 108.46Q136.74 108.66 137.45 108.81L137.84 108.90Q139.12 109.17 140.06 109.60Q141 110.02 141.53 110.72Q142.06 111.42 142.06 112.50Q142.06 113.59 141.51 114.42Q140.95 115.24 139.94 115.71Q138.93 116.18 137.55 116.18" fill="url(#g)"/>
</svg>